<mxfile host="app.diagrams.net" modified="2025-01-01T00:00:00.000Z" agent="5.0" version="24.7.17" etag="0">
  <diagram name="ER Diagram" id="0">
    <mxGraphModel dx="1422" dy="794" grid="1" gridSize="10" guides="1" tooltips="1" connect="1" arrows="1" fold="1" page="1" pageScale="1" pageWidth="827" pageHeight="1169" math="0" shadow="0">
      <root>
        <mxCell id="0" />
        <mxCell id="1" parent="0" />
        
        <!-- Title -->
        <mxCell id="47" value="STEP4_CATS ER図" style="text;html=1;align=center;verticalAlign=middle;resizable=0;points=[];autosize=1;strokeColor=none;fillColor=none;fontSize=20;fontStyle=1" vertex="1" parent="1">
          <mxGeometry x="300" y="40" width="200" height="30" as="geometry" />
        </mxCell>
        
        <mxCell id="48" value="婚活会話練習アプリケーション" style="text;html=1;align=center;verticalAlign=middle;resizable=0;points=[];autosize=1;strokeColor=none;fillColor=none;fontSize=14;fontStyle=0" vertex="1" parent="1">
          <mxGeometry x="320" y="70" width="180" height="30" as="geometry" />
        </mxCell>
        
        <!-- Users Table -->
        <mxCell id="2" value="users" style="swimlane;fontStyle=1;align=center;verticalAlign=top;childLayout=stackLayout;horizontal=1;startSize=26;horizontalStack=0;resizeParent=1;resizeParentMax=0;resizeLast=0;collapsible=1;marginBottom=0;whiteSpace=wrap;html=1;fillColor=#dae8fc;strokeColor=#6c8ebf;" vertex="1" parent="1">
          <mxGeometry x="100" y="140" width="280" height="260" as="geometry" />
        </mxCell>
        
        <mxCell id="3" value="🔑 id: INT (PK)" style="text;strokeColor=none;fillColor=none;align=left;verticalAlign=top;spacingLeft=4;spacingRight=4;overflow=hidden;rotatable=0;points=[[0,0.5],[1,0.5]];portConstraint=eastwest;whiteSpace=wrap;html=1;" vertex="1" parent="2">
          <mxGeometry y="26" width="280" height="26" as="geometry" />
        </mxCell>
        
        <mxCell id="4" value="username: VARCHAR(255)" style="text;strokeColor=none;fillColor=none;align=left;verticalAlign=top;spacingLeft=4;spacingRight=4;overflow=hidden;rotatable=0;points=[[0,0.5],[1,0.5]];portConstraint=eastwest;whiteSpace=wrap;html=1;" vertex="1" parent="2">
          <mxGeometry y="52" width="280" height="26" as="geometry" />
        </mxCell>
        
        <mxCell id="5" value="password_hash: VARCHAR(255)" style="text;strokeColor=none;fillColor=none;align=left;verticalAlign=top;spacingLeft=4;spacingRight=4;overflow=hidden;rotatable=0;points=[[0,0.5],[1,0.5]];portConstraint=eastwest;whiteSpace=wrap;html=1;" vertex="1" parent="2">
          <mxGeometry y="78" width="280" height="26" as="geometry" />
        </mxCell>
        
        <mxCell id="6" value="full_name: VARCHAR(255)" style="text;strokeColor=none;fillColor=none;align=left;verticalAlign=top;spacingLeft=4;spacingRight=4;overflow=hidden;rotatable=0;points=[[0,0.5],[1,0.5]];portConstraint=eastwest;whiteSpace=wrap;html=1;" vertex="1" parent="2">
          <mxGeometry y="104" width="280" height="26" as="geometry" />
        </mxCell>
        
        <mxCell id="7" value="email: VARCHAR(255)" style="text;strokeColor=none;fillColor=none;align=left;verticalAlign=top;spacingLeft=4;spacingRight=4;overflow=hidden;rotatable=0;points=[[0,0.5],[1,0.5]];portConstraint=eastwest;whiteSpace=wrap;html=1;" vertex="1" parent="2">
          <mxGeometry y="130" width="280" height="26" as="geometry" />
        </mxCell>
        
        <mxCell id="8" value="birth_date: DATE" style="text;strokeColor=none;fillColor=none;align=left;verticalAlign=top;spacingLeft=4;spacingRight=4;overflow=hidden;rotatable=0;points=[[0,0.5],[1,0.5]];portConstraint=eastwest;whiteSpace=wrap;html=1;" vertex="1" parent="2">
          <mxGeometry y="156" width="280" height="26" as="geometry" />
        </mxCell>
        
        <mxCell id="9" value="hometown: VARCHAR(255)" style="text;strokeColor=none;fillColor=none;align=left;verticalAlign=top;spacingLeft=4;spacingRight=4;overflow=hidden;rotatable=0;points=[[0,0.5],[1,0.5]];portConstraint=eastwest;whiteSpace=wrap;html=1;" vertex="1" parent="2">
          <mxGeometry y="182" width="280" height="26" as="geometry" />
        </mxCell>
        
        <mxCell id="10" value="hobbies: VARCHAR(255)" style="text;strokeColor=none;fillColor=none;align=left;verticalAlign=top;spacingLeft=4;spacingRight=4;overflow=hidden;rotatable=0;points=[[0,0.5],[1,0.5]];portConstraint=eastwest;whiteSpace=wrap;html=1;" vertex="1" parent="2">
          <mxGeometry y="208" width="280" height="26" as="geometry" />
        </mxCell>
        
        <mxCell id="11" value="matchmaking_agency: VARCHAR(255)" style="text;strokeColor=none;fillColor=none;align=left;verticalAlign=top;spacingLeft=4;spacingRight=4;overflow=hidden;rotatable=0;points=[[0,0.5],[1,0.5]];portConstraint=eastwest;whiteSpace=wrap;html=1;" vertex="1" parent="2">
          <mxGeometry y="234" width="280" height="26" as="geometry" />
        </mxCell>
        
        <!-- Conversation Partners Table -->
        <mxCell id="15" value="conversation_partners" style="swimlane;fontStyle=1;align=center;verticalAlign=top;childLayout=stackLayout;horizontal=1;startSize=26;horizontalStack=0;resizeParent=1;resizeParentMax=0;resizeLast=0;collapsible=1;marginBottom=0;whiteSpace=wrap;html=1;fillColor=#e1d5e7;strokeColor=#9673a6;" vertex="1" parent="1">
          <mxGeometry x="500" y="140" width="280" height="208" as="geometry" />
        </mxCell>
        
        <mxCell id="16" value="🔑 id: INT (PK)" style="text;strokeColor=none;fillColor=none;align=left;verticalAlign=top;spacingLeft=4;spacingRight=4;overflow=hidden;rotatable=0;points=[[0,0.5],[1,0.5]];portConstraint=eastwest;whiteSpace=wrap;html=1;" vertex="1" parent="15">
          <mxGeometry y="26" width="280" height="26" as="geometry" />
        </mxCell>
        
        <mxCell id="17" value="🔗 user_id: INT (FK)" style="text;strokeColor=none;fillColor=#f8cecc;align=left;verticalAlign=top;spacingLeft=4;spacingRight=4;overflow=hidden;rotatable=0;points=[[0,0.5],[1,0.5]];portConstraint=eastwest;whiteSpace=wrap;html=1;" vertex="1" parent="15">
          <mxGeometry y="52" width="280" height="26" as="geometry" />
        </mxCell>
        
        <mxCell id="18" value="name: VARCHAR(100)" style="text;strokeColor=none;fillColor=none;align=left;verticalAlign=top;spacingLeft=4;spacingRight=4;overflow=hidden;rotatable=0;points=[[0,0.5],[1,0.5]];portConstraint=eastwest;whiteSpace=wrap;html=1;" vertex="1" parent="15">
          <mxGeometry y="78" width="280" height="26" as="geometry" />
        </mxCell>
        
        <mxCell id="19" value="age: INT" style="text;strokeColor=none;fillColor=none;align=left;verticalAlign=top;spacingLeft=4;spacingRight=4;overflow=hidden;rotatable=0;points=[[0,0.5],[1,0.5]];portConstraint=eastwest;whiteSpace=wrap;html=1;" vertex="1" parent="15">
          <mxGeometry y="104" width="280" height="26" as="geometry" />
        </mxCell>
        
        <mxCell id="20" value="hometown: VARCHAR(100)" style="text;strokeColor=none;fillColor=none;align=left;verticalAlign=top;spacingLeft=4;spacingRight=4;overflow=hidden;rotatable=0;points=[[0,0.5],[1,0.5]];portConstraint=eastwest;whiteSpace=wrap;html=1;" vertex="1" parent="15">
          <mxGeometry y="130" width="280" height="26" as="geometry" />
        </mxCell>
        
        <mxCell id="21" value="hobbies: TEXT" style="text;strokeColor=none;fillColor=none;align=left;verticalAlign=top;spacingLeft=4;spacingRight=4;overflow=hidden;rotatable=0;points=[[0,0.5],[1,0.5]];portConstraint=eastwest;whiteSpace=wrap;html=1;" vertex="1" parent="15">
          <mxGeometry y="156" width="280" height="26" as="geometry" />
        </mxCell>
        
        <mxCell id="22" value="daily_routine: TEXT" style="text;strokeColor=none;fillColor=none;align=left;verticalAlign=top;spacingLeft=4;spacingRight=4;overflow=hidden;rotatable=0;points=[[0,0.5],[1,0.5]];portConstraint=eastwest;whiteSpace=wrap;html=1;" vertex="1" parent="15">
          <mxGeometry y="182" width="280" height="26" as="geometry" />
        </mxCell>
        
        <!-- Relationship Line -->
        <mxCell id="24" value="" style="endArrow=none;html=1;rounded=0;exitX=1;exitY=0.5;exitDx=0;exitDy=0;entryX=0;entryY=0.5;entryDx=0;entryDy=0;strokeWidth=2;" edge="1" parent="1" source="3" target="17">
          <mxGeometry relative="1" as="geometry" />
        </mxCell>
        
        <!-- Cardinality Labels -->
        <mxCell id="26" value="1" style="text;html=1;align=center;verticalAlign=middle;resizable=0;points=[];autosize=1;strokeColor=none;fillColor=none;fontStyle=1;fontSize=14" vertex="1" parent="1">
          <mxGeometry x="390" y="170" width="30" height="30" as="geometry" />
        </mxCell>
        
        <mxCell id="27" value="1:1" style="text;html=1;align=center;verticalAlign=middle;resizable=0;points=[];autosize=1;strokeColor=none;fillColor=none;fontStyle=1;fontSize=12" vertex="1" parent="1">
          <mxGeometry x="420" y="160" width="30" height="30" as="geometry" />
        </mxCell>
        
        <mxCell id="28" value="N" style="text;html=1;align=center;verticalAlign=middle;resizable=0;points=[];autosize=1;strokeColor=none;fillColor=none;fontStyle=1;fontSize=14" vertex="1" parent="1">
          <mxGeometry x="470" y="170" width="30" height="30" as="geometry" />
        </mxCell>
        
        <!-- Additional Tables for Future -->
        <mxCell id="29" value="추가予定テーブル" style="rounded=0;whiteSpace=wrap;html=1;align=center;fillColor=#f5f5f5;strokeColor=#666666;fontStyle=1;fontSize=14" vertex="1" parent="1">
          <mxGeometry x="100" y="450" width="680" height="30" as="geometry" />
        </mxCell>
        
        <mxCell id="30" value="💬 conversations: 会話履歴テーブル (将来実装予定)" style="rounded=0;whiteSpace=wrap;html=1;align=left;fillColor=#fff2cc;strokeColor=#d6b656;" vertex="1" parent="1">
          <mxGeometry x="100" y="490" width="320" height="40" as="geometry" />
        </mxCell>
        
        <mxCell id="31" value="💡 feedback: フィードバック保存テーブル (将来実装予定)" style="rounded=0;whiteSpace=wrap;html=1;align=left;fillColor=#fff2cc;strokeColor=#d6b656;" vertex="1" parent="1">
          <mxGeometry x="460" y="490" width="320" height="40" as="geometry" />
        </mxCell>
        
        <!-- Summary Box -->
        <mxCell id="32" value="概要" style="rounded=0;whiteSpace=wrap;html=1;align=center;fillColor=#f5f5f5;strokeColor=#666666;fontStyle=1;fontSize=14" vertex="1" parent="1">
          <mxGeometry x="100" y="560" width="680" height="30" as="geometry" />
        </mxCell>
        
        <mxCell id="33" value="• users: 婚活アプリ利用者の基本情報とプロフィール&#xa;• conversation_partners: AI会話練習で使用する仮想会話相手の設定&#xa;• 1ユーザーが複数の会話相手を設定可能 (1:N関係)&#xa;• OpenAI GPT-3.5との連携でリアルな会話練習を実現" style="rounded=0;whiteSpace=wrap;html=1;align=left;fillColor=#e1d5e7;strokeColor=#9673a6;fontSize=12;" vertex="1" parent="1">
          <mxGeometry x="100" y="600" width="680" height="80" as="geometry" />
        </mxCell>
        
      </root>
    </mxGraphModel>
  </diagram>
</mxfile>